<svg width="310" height="194" viewBox="0 0 310 194" fill="none" xmlns="http://www.w3.org/2000/svg">
<rect y="105" width="19" height="41" fill="#C4C4C4"/>
<rect width="20" height="86" transform="translate(31 84)" fill="black"/>
<rect width="19" height="41" transform="matrix(-1 0 0 1 188 105)" fill="#C4C4C4"/>
<rect width="20" height="86" transform="matrix(-1 0 0 1 157 84)" fill="black"/>
<rect x="61" y="118" width="64" height="17" fill="#C4C4C4"/>
<rect x="161.962" y="14.8492" width="19" height="41" transform="rotate(45 161.962 14.8492)" fill="#C4C4C4"/>
<rect width="20" height="86" transform="translate(198.731 21.9203) rotate(45)" fill="black"/>
<rect width="19" height="41" transform="matrix(-0.707107 -0.707107 -0.707107 0.707107 294.898 147.785)" fill="#C4C4C4"/>
<rect width="20" height="86" transform="matrix(-0.707107 -0.707107 -0.707107 0.707107 287.827 111.016)" fill="black"/>
<rect x="195.903" y="67.1752" width="64" height="17" transform="rotate(45 195.903 67.1752)" fill="#C4C4C4"/>
</svg>
