<svg width="150" height="100" viewBox="0 0 150 100" fill="none" xmlns="http://www.w3.org/2000/svg">
<rect y="54.1943" width="9.20105" height="21.1616" fill="#C4C4C4"/>
<rect width="9.68532" height="44.3877" transform="translate(15.0123 43.3554)" fill="black"/>
<rect width="9.20105" height="21.1616" transform="matrix(-1 0 0 1 91.042 54.1943)" fill="#C4C4C4"/>
<rect width="9.68532" height="44.3877" transform="matrix(-1 0 0 1 76.0297 43.3554)" fill="black"/>
<rect x="29.5402" y="60.9041" width="30.993" height="8.77432" fill="#C4C4C4"/>
<rect width="9.50864" height="20.5186" transform="matrix(0.684233 0.729264 -0.684233 0.729264 78.4326 7.66425)" fill="#C4C4C4"/>
<rect width="10.0091" height="43.0391" transform="matrix(0.684233 0.729264 -0.684233 0.729264 96.2388 11.3139)" fill="black"/>
<rect width="9.50864" height="20.5186" transform="matrix(-0.684233 -0.729264 -0.684233 0.729264 142.809 76.2774)" fill="#C4C4C4"/>
<rect width="10.0091" height="43.0391" transform="matrix(-0.684233 -0.729264 -0.684233 0.729264 139.385 57.2993)" fill="black"/>
<rect width="32.0291" height="8.50773" transform="matrix(0.684233 0.729264 -0.684233 0.729264 94.8691 34.6715)" fill="#C4C4C4"/>
</svg>
